<svg xmlns="http://www.w3.org/2000/svg" viewBox="0 0 1200 675" width="100%" height="100%">
  <defs>
    <linearGradient id="bgGradientOpt3" x1="0%" y1="0%" x2="100%" y2="100%">
      <stop offset="0%" stop-color="#002D4A" />
      <stop offset="60%" stop-color="#005F95" stop-opacity="0.9" />
      <stop offset="100%" stop-color="#002D4A" stop-opacity="0.8" />
    </linearGradient>
    
    <linearGradient id="fadeToRight" x1="0%" y1="0%" x2="100%" y2="0%">
      <stop offset="0%" stop-color="#ffffff" stop-opacity="1" />
      <stop offset="45%" stop-color="#ffffff" stop-opacity="0.9" />
      <stop offset="75%" stop-color="#ffffff" stop-opacity="0.2" />
      <stop offset="100%" stop-color="#ffffff" stop-opacity="0" />
    </linearGradient>

    <mask id="dashboardMaskOpt3">
      <rect width="1200" height="675" fill="url(#fadeToRight)" />
    </mask>
  </defs>

  <rect width="1200" height="675" fill="url(#bgGradientOpt3)" />

  <circle cx="200" cy="200" r="300" fill="#0077B6" opacity="0.1" filter="blur(35px)" />
  <circle cx="700" cy="500" r="250" fill="#0096C7" opacity="0.1" filter="blur(40px)" />

  <g mask="url(#dashboardMaskOpt3)">
    
    <g transform="translate(50, 100)" opacity="0.25">
      <line x1="20" y1="30" x2="200" y2="10" stroke="#ffffff" stroke-width="1.5" />
      <line x1="200" y1="10" x2="350" y2="150" stroke="#ffffff" stroke-width="1.5" />
      <line x1="20" y1="30" x2="180" y2="250" stroke="#ffffff" stroke-width="1.5" />
      <line x1="180" y1="250" x2="350" y2="150" stroke="#ffffff" stroke-width="1.5" />
      <line x1="350" y1="150" x2="330" y2="350" stroke="#ffffff" stroke-width="1.5" />
      <line x1="180" y1="250" x2="150" y2="450" stroke="#ffffff" stroke-width="1.5" />
      <line x1="330" y1="350" x2="500" y2="400" stroke="#ffffff" stroke-width="1.5" stroke-dasharray="4,4" />
      <line x1="350" y1="150" x2="600" y2="100" stroke="#ffffff" stroke-width="1" opacity="0.5" />
      
      <circle cx="20" cy="30" r="14" fill="#ffffff" stroke="#ffffff" stroke-width="2" stroke-opacity="0.3" />
      <circle cx="200" cy="10" r="9" fill="#ffffff" />
      <circle cx="350" cy="150" r="18" fill="#ffffff" stroke="#ffffff" stroke-width="2" stroke-opacity="0.3" />
      <circle cx="180" cy="250" r="11" fill="#ffffff" />
      <circle cx="330" cy="350" r="10" fill="#ffffff" />
      <circle cx="150" cy="450" r="8" fill="#ffffff" />
      <circle cx="500" cy="400" r="16" fill="#ffffff" stroke="#ffffff" stroke-width="2" stroke-opacity="0.3" />
      <circle cx="600" cy="100" r="7" fill="#ffffff" />
    </g>

    <g transform="translate(650, 150)" opacity="0.18">
      <path d="M50,50 L50,-10 A60,60 0 0,1 102,20 Z" fill="#ffffff" opacity="0.25" />
      <path d="M50,50 L102,20 A60,60 0 0,1 70,105 Z" fill="#ffffff" opacity="0.15" />
      <path d="M50,50 L70,105 A60,60 0 0,1 -2,68 Z" fill="#ffffff" opacity="0.3" />
      <path d="M50,50 L-2,68 A60,60 0 0,1 50,-10 Z" fill="#ffffff" opacity="0.1" />
      
      <circle cx="50" cy="50" r="6" fill="#ffffff" opacity="0.5"/>
    </g>

    <g transform="translate(700, 480)" opacity="0.3">
      <path d="M 10,120 L 50,60 L 90,100 L 130,50 L 170,110 L 210,70" fill="none" stroke="#ffffff" stroke-width="2.5" />
      <path d="M 10,100 L 60,115 L 100,65 L 140,85 L 180,45 L 220,80" fill="none" stroke="#ffffff" stroke-width="1.5" stroke-dasharray="4,4" />
      
      <circle cx="10" cy="120" r="3" fill="#ffffff"/>
      <circle cx="130" cy="50" r="3" fill="#ffffff"/>
      <circle cx="210" cy="70" r="3" fill="#ffffff"/>
    </g>

    <circle cx="500" cy="250" r="40" fill="#ffffff" opacity="0.06" stroke="#ffffff" stroke-width="1" stroke-opacity="0.15"/>
    <circle cx="850" cy="350" r="30" fill="#ffffff" opacity="0.09"/>
    <circle cx="1100" cy="200" r="50" fill="#ffffff" opacity="0.04" stroke="#ffffff" stroke-width="1" stroke-opacity="0.1"/>
    <circle cx="1000" cy="620" r="25" fill="#ffffff" opacity="0.07"/>

  </g>

  <g transform="translate(40, 40)" opacity="0.15">
    <circle cx="0" cy="0" r="4" fill="#ffffff" />
    <circle cx="15" cy="-10" r="2" fill="#ffffff" />
    <circle cx="20" cy="8" r="3" fill="#ffffff" />
    <line x1="0" y1="0" x2="15" y2="-10" stroke="#ffffff" stroke-width="1" />
    <line x1="0" y1="0" x2="20" y2="8" stroke="#ffffff" stroke-width="1" />
  </g>

</svg>
