<?xml version="1.0" encoding="UTF-8"?>
<svg id="Capa_2" data-name="Capa 2" xmlns="http://www.w3.org/2000/svg" viewBox="0 0 97.49 94.67">
  <defs>
    <style>
      .cls-1 {
        fill: #fff;
      }

      .cls-2 {
        fill: none;
        opacity: 0;
      }
    </style>
  </defs>
  <g id="Capa_1-2" data-name="Capa 1">
    <g>
      <rect class="cls-2" width="97.49" height="94.67"/>
      <g>
        <path class="cls-1" d="M36.31,20.38h6.55v5.96h.15c3.12-4.51,8.8-6.84,14.4-6.84,10.69,0,19.71,8.51,19.71,19.41,0,11.93-9.46,20.22-20,20.22-6.55,0-11.34-2.77-14.11-6.69h-.15v21.81h-6.55V20.38Zm19.92,5.24c-7.12,0-13.38,6.11-13.38,13.74s6.11,13.67,13.6,13.67c6.91,0,13.67-5.31,13.67-14.03,0-6.33-5.01-13.38-13.89-13.38"/>
        <g>
          <path class="cls-1" d="M30.55,29.12c0,2.82-2.29,5.1-5.1,5.1s-5.1-2.28-5.1-5.1,2.29-5.09,5.1-5.09,5.1,2.27,5.1,5.09"/>
          <path class="cls-1" d="M30.55,49.5c0,2.82-2.29,5.1-5.1,5.1s-5.1-2.27-5.1-5.1,2.29-5.09,5.1-5.09,5.1,2.27,5.1,5.09"/>
        </g>
      </g>
    </g>
  </g>
</svg>