<?xml version="1.0" encoding="UTF-8"?>
<svg id="Capa_2" data-name="Capa 2" xmlns="http://www.w3.org/2000/svg" viewBox="0 0 233.39 94.67">
  <defs>
    <style>
      .cls-1 {
        fill: #80bc00;
      }

      .cls-2 {
        fill: none;
        opacity: 0;
      }
    </style>
  </defs>
  <g id="Capa_1-2" data-name="Capa 1">
    <g>
      <rect class="cls-2" width="233.39" height="94.67"/>
      <g>
        <path class="cls-1" d="M30.67,31.92h5.53v5.03h.12c2.64-3.81,7.43-5.77,12.16-5.77,9.03,0,16.65,7.19,16.65,16.4,0,10.07-7.99,17.08-16.89,17.08-5.53,0-9.58-2.34-11.92-5.65h-.12v18.43h-5.53V31.92Zm16.83,4.42c-6.02,0-11.3,5.16-11.3,11.61s5.16,11.55,11.49,11.55c5.84,0,11.54-4.48,11.54-11.85,0-5.34-4.23-11.3-11.73-11.3"/>
        <path class="cls-1" d="M75.52,17.24V53.91c0,3.62,1.78,4.85,3.56,4.85h1.66v5.16h-2.27c-5.1,0-8.47-2.88-8.47-9.58V17.24h5.53Z"/>
        <path class="cls-1" d="M106.86,60.17h-.12c-1.66,2.88-5.22,4.48-8.78,4.48-6.2,0-12.34-3.38-12.34-12.04V31.92h5.53v18.61c0,4.79,1.96,8.97,7.43,8.97,5.16,0,8.29-3.5,8.29-9.58V31.92h5.53v32h-5.53v-3.75Z"/>
        <path class="cls-1" d="M117.25,31.92h5.52v5.28h.13c2.76-4.98,5.4-5.28,10.07-5.28v5.83c-.8-.18-1.66-.31-2.52-.31-4.61,0-7.68,3.2-7.68,9.03v17.44h-5.52V31.92Z"/>
        <path class="cls-1" d="M159.09,60.17h-.13c-1.66,2.88-5.22,4.48-8.79,4.48-6.2,0-12.34-3.38-12.34-12.04V31.92h5.53v18.61c0,4.79,1.97,8.97,7.43,8.97,5.16,0,8.29-3.5,8.29-9.58V31.92h5.52v32h-5.52v-3.75Z"/>
        <path class="cls-1" d="M210.63,44.32c0-5.52-3.19-7.98-7-7.98-4.61,0-8.05,2.88-8.05,8.23v19.35h-5.53v-19.59c0-5.52-3.19-7.98-7-7.98-4.61,0-8.05,2.88-8.05,8.23v19.35h-5.53V31.92h5.53v3.81h.12c1.47-3.25,5.47-4.54,8.85-4.54s6.82,.86,9.46,5.53c1.97-4.05,6.2-5.53,10.44-5.53,6.88,0,12.28,4.12,12.28,12.53v20.2h-5.53v-19.59Z"/>
        <g>
          <path class="cls-1" d="M25.8,39.31c0,2.38-1.93,4.3-4.31,4.3s-4.31-1.92-4.31-4.3,1.93-4.3,4.31-4.3,4.31,1.92,4.31,4.3"/>
          <path class="cls-1" d="M25.8,56.52c0,2.38-1.93,4.3-4.31,4.3s-4.31-1.92-4.31-4.3,1.93-4.3,4.31-4.3,4.31,1.92,4.31,4.3"/>
        </g>
      </g>
    </g>
  </g>
</svg>